Poster: 
http://www.gulte.com/content/2012/10/news/Denikaina-Ready-Movie-Posters-138.jpg

Info:

Format : AVI
Format/Info : Audio Video Interleave
File size : 698 MiB
Duration : 2h 14mn
Overall bit rate mode : Variable
Overall bit rate : 727 Kbps
Writing application : VirtualDubMod 1.5.4.1 (build 2178/release)
Writing library : VirtualDubMod build 2178/release

Video
ID : 0
Format : MPEG-4 Visual
Format profile : Advanced Simple@L5
Format settings, BVOP : 1
Format settings, QPel : No
Format settings, GMC : No warppoints
Format settings, Matrix : Custom
Codec ID : XVID
Codec ID/Hint : XviD
Duration : 2h 14mn
Bit rate : 597 Kbps
Width : 656 pixels
Height : 256 pixels
Display aspect ratio : 2.562
Frame rate : 29.970 fps
Color space : YUV
Chroma subsampling : 4:2:0
Bit depth : 8 bits
Scan type : Progressive
Compression mode : Lossy
Bits/(Pixel*Frame) : 0.119
Stream size : 574 MiB (82%)
Writing library : XviD 58

Audio
ID : 1
Format : MPEG Audio
Format version : Version 1
Format profile : Layer 3
Mode : Joint stereo
Mode extension : MS Stereo
Codec ID : 55
Codec ID/Hint : MP3
Duration : 2h 14mn
Bit rate mode : Variable
Bit rate : 116 Kbps
Nominal bit rate : 128 Kbps
Channel(s) : 2 channels
Sampling rate : 48.0 KHz
Compression mode : Lossy
Stream size : 111 MiB (16%)
Alignment : Aligned on interleaves
Interleave, duration : 24 ms (0.72 video frame)
Interleave, preload duration : 489 ms
Writing library : LAME3.97
Encoding settings : -m j -V 4 -q 2 -lowpass 17 --abr 128


SCREENS:
 
http://img233.imageshack.us/img233/3917/imagedykg.jpg 
http://img22.imageshack.us/img22/8936/imagellw.jpg 
http://img696.imageshack.us/img696/4305/imagecdac.jpg 
http://img812.imageshack.us/img812/8913/imagerot.jpg 
http://img5.imageshack.us/img5/5860/imagezcsi.jpg 
http://img507.imageshack.us/img507/5272/imagefwou.jpg 
http://img694.imageshack.us/img694/3598/imagewbx.jpg